<svg width="108" height="108" viewBox="0 0 108 108" fill="none" xmlns="http://www.w3.org/2000/svg">
<circle cx="54" cy="54" r="54" fill="url(#paint0_linear_53_941)"/>
<circle cx="54" cy="54" r="54" fill="url(#paint1_linear_53_941)"/>
<circle cx="54.1973" cy="53.0203" r="44.5" transform="rotate(11.422 54.1973 53.0203)" fill="url(#paint2_linear_53_941)"/>
<circle cx="54.1973" cy="53.0203" r="44.5" transform="rotate(11.422 54.1973 53.0203)" fill="url(#paint3_linear_53_941)"/>
<circle cx="54.1973" cy="53.0203" r="44.5" transform="rotate(11.422 54.1973 53.0203)" stroke="url(#paint4_linear_53_941)"/>
<path d="M69.424 54.84H74.992C75.504 54.84 75.9307 55.0107 76.272 55.352C76.6133 55.6933 76.784 56.0987 76.784 56.568V66.104C76.784 66.5733 76.6133 66.9787 76.272 67.32C75.9307 67.6613 75.5253 67.832 75.056 67.832H69.424V73.272C69.424 73.7413 69.2533 74.1467 68.912 74.488C68.5707 74.8293 68.1653 75 67.696 75H55.792C55.3227 75 54.9173 74.8293 54.576 74.488C54.2347 74.1467 54.064 73.7413 54.064 73.272V67.832H34.928C34.4587 67.832 34.0533 67.6613 33.712 67.32C33.3707 66.9787 33.2 66.5733 33.2 66.104V56.952C33.2 56.2267 33.4347 55.5653 33.904 54.968L52.016 31.288C52.6133 30.5627 53.4027 30.2 54.384 30.2H67.696C68.1653 30.2 68.5707 30.3707 68.912 30.712C69.2533 31.0533 69.424 31.4587 69.424 31.928V54.84ZM54.512 55.544V46.328L47.792 55.544H54.512Z" fill="white"/>
<path d="M69.424 54.84H66.424V57.84H69.424V54.84ZM76.272 55.352L78.3933 53.2307L78.3933 53.2307L76.272 55.352ZM76.272 67.32L78.3933 69.4413L78.3933 69.4413L76.272 67.32ZM69.424 67.832V64.832H66.424V67.832H69.424ZM54.576 74.488L52.4547 76.6093L52.4547 76.6093L54.576 74.488ZM54.064 67.832H57.064V64.832H54.064V67.832ZM33.712 67.32L35.8333 65.1987H35.8333L33.712 67.32ZM33.904 54.968L36.263 56.8215L36.275 56.8061L36.2869 56.7906L33.904 54.968ZM52.016 31.288L49.7002 29.3809L49.6659 29.4225L49.6331 29.4654L52.016 31.288ZM54.512 55.544V58.544H57.512V55.544H54.512ZM54.512 46.328H57.512V37.1218L52.088 44.5605L54.512 46.328ZM47.792 55.544L45.368 53.7765L41.8917 58.544H47.792V55.544ZM69.424 57.84H74.992V51.84H69.424V57.84ZM74.992 57.84C74.9098 57.84 74.7611 57.8251 74.5818 57.7534C74.399 57.6803 74.2525 57.5752 74.1507 57.4733L78.3933 53.2307C77.4526 52.29 76.2461 51.84 74.992 51.84V57.84ZM74.1507 57.4733C74.0738 57.3964 73.9704 57.2646 73.8911 57.0762C73.811 56.886 73.784 56.706 73.784 56.568H79.784C79.784 55.278 79.2793 54.1167 78.3933 53.2307L74.1507 57.4733ZM73.784 56.568V66.104H79.784V56.568H73.784ZM73.784 66.104C73.784 65.966 73.811 65.7859 73.8911 65.5958C73.9704 65.4074 74.0738 65.2756 74.1507 65.1987L78.3933 69.4413C79.2793 68.5553 79.784 67.394 79.784 66.104H73.784ZM74.1507 65.1987C74.2276 65.1218 74.3594 65.0184 74.5478 64.9391C74.7379 64.859 74.918 64.832 75.056 64.832V70.832C76.346 70.832 77.5073 70.3273 78.3933 69.4413L74.1507 65.1987ZM75.056 64.832H69.424V70.832H75.056V64.832ZM66.424 67.832V73.272H72.424V67.832H66.424ZM66.424 73.272C66.424 73.134 66.451 72.9539 66.5311 72.7638C66.6104 72.5754 66.7138 72.4436 66.7907 72.3667L71.0333 76.6093C71.9193 75.7233 72.424 74.562 72.424 73.272H66.424ZM66.7907 72.3667C66.8676 72.2898 66.9994 72.1864 67.1878 72.1071C67.3779 72.027 67.558 72 67.696 72V78C68.986 78 70.1473 77.4953 71.0333 76.6093L66.7907 72.3667ZM67.696 72H55.792V78H67.696V72ZM55.792 72C55.93 72 56.1101 72.027 56.3002 72.1071C56.4886 72.1864 56.6204 72.2898 56.6973 72.3667L52.4547 76.6093C53.3407 77.4953 54.502 78 55.792 78V72ZM56.6973 72.3667C56.7742 72.4436 56.8776 72.5754 56.9569 72.7638C57.037 72.9539 57.064 73.134 57.064 73.272H51.064C51.064 74.562 51.5687 75.7233 52.4547 76.6093L56.6973 72.3667ZM57.064 73.272V67.832H51.064V73.272H57.064ZM54.064 64.832H34.928V70.832H54.064V64.832ZM34.928 64.832C35.066 64.832 35.2461 64.859 35.4362 64.9391C35.6246 65.0184 35.7564 65.1218 35.8333 65.1987L31.5907 69.4413C32.4767 70.3273 33.638 70.832 34.928 70.832V64.832ZM35.8333 65.1987C35.9102 65.2756 36.0136 65.4074 36.0929 65.5958C36.173 65.7859 36.2 65.966 36.2 66.104H30.2C30.2 67.394 30.7047 68.5553 31.5907 69.4413L35.8333 65.1987ZM36.2 66.104V56.952H30.2V66.104H36.2ZM36.2 56.952C36.2 56.9331 36.2015 56.9234 36.2019 56.9206C36.2024 56.9179 36.2027 56.9168 36.2033 56.9152C36.2039 56.9136 36.2065 56.9063 36.2143 56.8925C36.2221 56.8784 36.2369 56.8546 36.263 56.8215L31.545 53.1145C30.6816 54.2135 30.2 55.521 30.2 56.952H36.2ZM36.2869 56.7906L54.3989 33.1106L49.6331 29.4654L31.5211 53.1454L36.2869 56.7906ZM54.3318 33.1951C54.3524 33.1701 54.3599 33.1659 54.3519 33.1722C54.3482 33.1751 54.3422 33.1794 54.3341 33.1844C54.326 33.1894 54.3173 33.194 54.3085 33.198C54.2896 33.2067 54.2798 33.2082 54.286 33.207C54.2931 33.2055 54.3237 33.2 54.384 33.2V27.2C52.552 27.2 50.8959 27.929 49.7002 29.3809L54.3318 33.1951ZM54.384 33.2H67.696V27.2H54.384V33.2ZM67.696 33.2C67.558 33.2 67.3779 33.173 67.1878 33.0929C66.9994 33.0136 66.8676 32.9102 66.7907 32.8333L71.0333 28.5907C70.1473 27.7047 68.986 27.2 67.696 27.2V33.2ZM66.7907 32.8333C66.7138 32.7564 66.6104 32.6246 66.5311 32.4362C66.451 32.2461 66.424 32.066 66.424 31.928H72.424C72.424 30.638 71.9193 29.4767 71.0333 28.5907L66.7907 32.8333ZM66.424 31.928V54.84H72.424V31.928H66.424ZM57.512 55.544V46.328H51.512V55.544H57.512ZM52.088 44.5605L45.368 53.7765L50.216 57.3115L56.936 48.0955L52.088 44.5605ZM47.792 58.544H54.512V52.544H47.792V58.544Z" fill="#967AE9"/>
<defs>
<linearGradient id="paint0_linear_53_941" x1="0" y1="0" x2="120.5" y2="93.5" gradientUnits="userSpaceOnUse">
<stop stop-color="#2E0251"/>
<stop offset="0.505208" stop-color="#6C2BBF"/>
<stop offset="0.625" stop-color="#58239C"/>
<stop offset="1"/>
</linearGradient>
<linearGradient id="paint1_linear_53_941" x1="0" y1="0" x2="120.5" y2="93.5" gradientUnits="userSpaceOnUse">
<stop offset="0.0625" stop-color="#2E0251"/>
<stop offset="0.307292" stop-color="#661DC4"/>
<stop offset="0.557292" stop-color="#923FD5"/>
<stop offset="0.78125" stop-color="#6C2BBF"/>
<stop offset="1" stop-color="#2E0251"/>
</linearGradient>
<linearGradient id="paint2_linear_53_941" x1="9.19729" y1="8.02029" x2="109.614" y2="85.937" gradientUnits="userSpaceOnUse">
<stop stop-color="#2E0251"/>
<stop offset="0.505208" stop-color="#6C2BBF"/>
<stop offset="0.625" stop-color="#58239C"/>
<stop offset="1"/>
</linearGradient>
<linearGradient id="paint3_linear_53_941" x1="9.19729" y1="8.02029" x2="109.614" y2="85.937" gradientUnits="userSpaceOnUse">
<stop offset="0.195234" stop-color="#301844"/>
<stop offset="0.643804" stop-color="#8B44E8"/>
</linearGradient>
<linearGradient id="paint4_linear_53_941" x1="70.9795" y1="10.8412" x2="38.1985" y2="96.0199" gradientUnits="userSpaceOnUse">
<stop stop-color="#490381"/>
<stop offset="1" stop-color="#967AE9"/>
</linearGradient>
</defs>
</svg>
