<svg width="108" height="108" viewBox="0 0 108 108" fill="none" xmlns="http://www.w3.org/2000/svg">
<circle cx="54" cy="54" r="54" fill="url(#paint0_linear_54_1616)"/>
<circle cx="54" cy="54" r="54" fill="url(#paint1_linear_54_1616)"/>
<circle cx="54.1973" cy="53.0203" r="44.5" transform="rotate(11.422 54.1973 53.0203)" fill="url(#paint2_linear_54_1616)"/>
<circle cx="54.1973" cy="53.0203" r="44.5" transform="rotate(11.422 54.1973 53.0203)" fill="url(#paint3_linear_54_1616)"/>
<circle cx="54.1973" cy="53.0203" r="44.5" transform="rotate(11.422 54.1973 53.0203)" stroke="url(#paint4_linear_54_1616)"/>
<path d="M72.56 61.816C73.0293 61.816 73.4347 61.9867 73.776 62.328C74.1173 62.6693 74.288 63.0747 74.288 63.544V73.272C74.288 73.7413 74.1173 74.1467 73.776 74.488C73.4347 74.8293 73.0293 75 72.56 75H34.928C34.4587 75 34.0533 74.8293 33.712 74.488C33.3707 74.1467 33.2 73.7413 33.2 73.272V66.616C33.2 65.08 33.7333 63.928 34.8 63.16C43.8453 56.632 49.328 52.536 51.248 50.872C54.2773 48.2267 55.792 46.0933 55.792 44.472C55.792 43.1493 55.4507 42.36 54.768 42.104C54.4267 41.976 54.0427 41.912 53.616 41.912C53.232 41.912 52.8907 41.9547 52.592 42.04C52.336 42.0827 52.1013 42.168 51.888 42.296C51.6747 42.3813 51.4827 42.5093 51.312 42.68C51.1413 42.8507 50.992 43 50.864 43.128C50.7787 43.256 50.672 43.448 50.544 43.704C50.416 43.96 50.3307 44.152 50.288 44.28C50.0747 44.792 49.968 45.0907 49.968 45.176C49.6267 46.1573 48.7733 46.648 47.408 46.648H35.376C34.992 46.648 34.6507 46.52 34.352 46.264C34.096 45.9653 33.968 45.624 33.968 45.24C33.968 40.504 35.8027 36.664 39.472 33.72C43.184 30.776 47.8987 29.304 53.616 29.304C59.376 29.304 63.9627 30.584 67.376 33.144C70.832 35.6613 72.56 39.16 72.56 43.64C72.56 47.0107 71.3867 50.0613 69.04 52.792C66.6933 55.5227 63.1093 58.5307 58.288 61.816H72.56Z" fill="white"/>
<path d="M73.776 62.328L71.6547 64.4493L71.6547 64.4493L73.776 62.328ZM73.776 74.488L71.6547 72.3667L71.6547 72.3667L73.776 74.488ZM33.712 74.488L35.8333 72.3667H35.8333L33.712 74.488ZM34.8 63.16L36.5529 65.5946L36.5556 65.5926L34.8 63.16ZM51.248 50.872L53.2128 53.1391L53.2213 53.1317L51.248 50.872ZM54.768 42.104L53.7146 44.913L53.7146 44.913L54.768 42.104ZM52.592 42.04L53.0852 44.9992L53.2528 44.9712L53.4162 44.9246L52.592 42.04ZM51.888 42.296L53.0022 45.0814L53.2254 44.9921L53.4315 44.8685L51.888 42.296ZM51.312 42.68L53.4333 44.8013L53.4333 44.8013L51.312 42.68ZM50.864 43.128L48.7427 41.0067L48.5326 41.2167L48.3679 41.4639L50.864 43.128ZM50.288 44.28L53.0572 45.4338L53.0994 45.3327L53.134 45.2287L50.288 44.28ZM49.968 45.176L52.8015 46.1616L52.968 45.6828V45.176H49.968ZM34.352 46.264L32.0742 48.2164L32.2244 48.3916L32.3996 48.5418L34.352 46.264ZM39.472 33.72L37.6078 31.3695L37.6012 31.3748L37.5946 31.38L39.472 33.72ZM67.376 33.144L65.576 35.544L65.5928 35.5566L65.6097 35.5689L67.376 33.144ZM69.04 52.792L71.3153 54.7473L69.04 52.792ZM58.288 61.816L56.5987 59.3369L48.5578 64.816H58.288V61.816ZM72.56 64.816C72.422 64.816 72.242 64.789 72.0518 64.7089C71.8634 64.6296 71.7316 64.5262 71.6547 64.4493L75.8973 60.2067C75.0113 59.3207 73.85 58.816 72.56 58.816V64.816ZM71.6547 64.4493C71.5778 64.3724 71.4744 64.2406 71.3951 64.0522C71.315 63.8621 71.288 63.682 71.288 63.544H77.288C77.288 62.254 76.7833 61.0927 75.8973 60.2067L71.6547 64.4493ZM71.288 63.544V73.272H77.288V63.544H71.288ZM71.288 73.272C71.288 73.134 71.315 72.9539 71.3951 72.7638C71.4744 72.5754 71.5778 72.4436 71.6547 72.3667L75.8973 76.6093C76.7833 75.7233 77.288 74.562 77.288 73.272H71.288ZM71.6547 72.3667C71.7316 72.2898 71.8634 72.1864 72.0518 72.1071C72.242 72.027 72.422 72 72.56 72V78C73.85 78 75.0113 77.4953 75.8973 76.6093L71.6547 72.3667ZM72.56 72H34.928V78H72.56V72ZM34.928 72C35.066 72 35.2461 72.027 35.4362 72.1071C35.6246 72.1864 35.7564 72.2898 35.8333 72.3667L31.5907 76.6093C32.4767 77.4953 33.638 78 34.928 78V72ZM35.8333 72.3667C35.9102 72.4436 36.0136 72.5754 36.0929 72.7638C36.173 72.9539 36.2 73.134 36.2 73.272H30.2C30.2 74.562 30.7047 75.7233 31.5907 76.6093L35.8333 72.3667ZM36.2 73.272V66.616H30.2V73.272H36.2ZM36.2 66.616C36.2 65.8591 36.4088 65.6984 36.5529 65.5946L33.0471 60.7254C31.0579 62.1576 30.2 64.3009 30.2 66.616H36.2ZM36.5556 65.5926C45.5537 59.0988 51.1675 54.9116 53.2128 53.1391L49.2832 48.6049C47.4885 50.1604 42.137 54.1652 33.0444 60.7274L36.5556 65.5926ZM53.2213 53.1317C54.8295 51.7273 56.1561 50.3573 57.1021 49.0248C58.017 47.7362 58.792 46.1818 58.792 44.472H52.792C52.792 44.3836 52.8097 44.7064 52.2099 45.5512C51.6413 46.3521 50.6958 47.3714 49.2747 48.6123L53.2213 53.1317ZM58.792 44.472C58.792 42.9925 58.4424 40.2779 55.8214 39.295L53.7146 44.913C53.4731 44.8224 53.2508 44.6769 53.0729 44.4953C52.9026 44.3214 52.818 44.161 52.7824 44.0787C52.7487 44.0008 52.7542 43.9829 52.7664 44.0586C52.7784 44.1325 52.792 44.2658 52.792 44.472H58.792ZM55.8214 39.295C55.0912 39.0212 54.3423 38.912 53.616 38.912V44.912C53.7431 44.912 53.7622 44.9308 53.7146 44.913L55.8214 39.295ZM53.616 38.912C53.0162 38.912 52.389 38.978 51.7678 39.1554L53.4162 44.9246C53.3924 44.9314 53.4478 44.912 53.616 44.912V38.912ZM52.0988 39.0808C51.4878 39.1826 50.8945 39.3936 50.3445 39.7235L53.4315 44.8685C53.3082 44.9424 53.1842 44.9827 53.0852 44.9992L52.0988 39.0808ZM50.7738 39.5106C50.1644 39.7544 49.6339 40.1155 49.1907 40.5587L53.4333 44.8013C53.3315 44.9032 53.185 45.0083 53.0022 45.0814L50.7738 39.5106ZM49.1907 40.5587C49.02 40.7293 48.8707 40.8787 48.7427 41.0067L52.9853 45.2493C53.1133 45.1213 53.2626 44.972 53.4333 44.8013L49.1907 40.5587ZM48.3679 41.4639C48.1781 41.7485 48.0057 42.0723 47.8607 42.3624L53.2273 45.0456C53.2773 44.9456 53.3154 44.8736 53.3425 44.8249C53.3716 44.7725 53.3768 44.7671 53.3601 44.7921L48.3679 41.4639ZM47.8607 42.3624C47.7232 42.6374 47.5561 42.989 47.442 43.3313L53.134 45.2287C53.1219 45.2652 53.1136 45.2857 53.1134 45.2862C53.1128 45.2878 53.1162 45.2791 53.1254 45.2584C53.1444 45.2157 53.1769 45.1464 53.2273 45.0456L47.8607 42.3624ZM47.5188 43.1262C47.4045 43.4003 47.3017 43.6579 47.2228 43.879C47.1842 43.987 47.1379 44.1235 47.0974 44.2691C47.0821 44.3242 46.968 44.7073 46.968 45.176H52.968C52.968 45.3198 52.9572 45.4364 52.9482 45.5121C52.9388 45.5912 52.9277 45.6556 52.919 45.7005C52.9023 45.7876 52.8855 45.8498 52.8786 45.8749C52.8743 45.8902 52.8709 45.9015 52.8688 45.9084C52.8667 45.9153 52.8654 45.9193 52.8652 45.9201C52.8649 45.921 52.8672 45.9138 52.8732 45.897C52.8856 45.8624 52.9064 45.8066 52.9385 45.7255C52.97 45.6456 53.0093 45.5489 53.0572 45.4338L47.5188 43.1262ZM47.1345 44.1904C47.1525 44.1387 47.1966 44.0404 47.2866 43.9295C47.3782 43.8166 47.4832 43.733 47.5766 43.6793C47.7475 43.581 47.7594 43.648 47.408 43.648V49.648C48.4219 49.648 49.5431 49.4697 50.5674 48.8807C51.6567 48.2544 52.408 47.2929 52.8015 46.1616L47.1345 44.1904ZM47.408 43.648H35.376V49.648H47.408V43.648ZM35.376 43.648C35.5243 43.648 35.7015 43.6741 35.8854 43.743C36.0682 43.8116 36.2085 43.9041 36.3044 43.9862L32.3996 48.5418C33.2275 49.2514 34.257 49.648 35.376 49.648V43.648ZM36.6298 44.3116C36.7119 44.4075 36.8044 44.5478 36.873 44.7306C36.9419 44.9145 36.968 45.0917 36.968 45.24H30.968C30.968 46.359 31.3646 47.3885 32.0742 48.2164L36.6298 44.3116ZM36.968 45.24C36.968 41.4067 38.3953 38.4301 41.3494 36.0599L37.5946 31.38C33.21 34.8979 30.968 39.6013 30.968 45.24H36.968ZM41.3362 36.0705C44.4146 33.629 48.4309 32.304 53.616 32.304V26.304C47.3665 26.304 41.9534 27.923 37.6078 31.3695L41.3362 36.0705ZM53.616 32.304C58.9515 32.304 62.8368 33.4896 65.576 35.544L69.176 30.744C65.0886 27.6784 59.8005 26.304 53.616 26.304V32.304ZM65.6097 35.5689C68.2479 37.4906 69.56 40.0651 69.56 43.64H75.56C75.56 38.2549 73.4161 33.8321 69.1423 30.7191L65.6097 35.5689ZM69.56 43.64C69.56 46.2419 68.6783 48.61 66.7647 50.8367L71.3153 54.7473C74.095 51.5127 75.56 47.7794 75.56 43.64H69.56ZM66.7647 50.8367C64.6621 53.2835 61.3192 56.1202 56.5987 59.3369L59.9773 64.2951C64.8995 60.9411 68.7246 57.7619 71.3153 54.7473L66.7647 50.8367ZM58.288 64.816H72.56V58.816H58.288V64.816Z" fill="#967AE9"/>
<defs>
<linearGradient id="paint0_linear_54_1616" x1="0" y1="0" x2="120.5" y2="93.5" gradientUnits="userSpaceOnUse">
<stop stop-color="#2E0251"/>
<stop offset="0.505208" stop-color="#6C2BBF"/>
<stop offset="0.625" stop-color="#58239C"/>
<stop offset="1"/>
</linearGradient>
<linearGradient id="paint1_linear_54_1616" x1="0" y1="0" x2="120.5" y2="93.5" gradientUnits="userSpaceOnUse">
<stop offset="0.0625" stop-color="#2E0251"/>
<stop offset="0.307292" stop-color="#661DC4"/>
<stop offset="0.557292" stop-color="#923FD5"/>
<stop offset="0.78125" stop-color="#6C2BBF"/>
<stop offset="1" stop-color="#2E0251"/>
</linearGradient>
<linearGradient id="paint2_linear_54_1616" x1="9.19729" y1="8.02029" x2="109.614" y2="85.937" gradientUnits="userSpaceOnUse">
<stop stop-color="#2E0251"/>
<stop offset="0.505208" stop-color="#6C2BBF"/>
<stop offset="0.625" stop-color="#58239C"/>
<stop offset="1"/>
</linearGradient>
<linearGradient id="paint3_linear_54_1616" x1="9.19729" y1="8.02029" x2="109.614" y2="85.937" gradientUnits="userSpaceOnUse">
<stop offset="0.195234" stop-color="#301844"/>
<stop offset="0.643804" stop-color="#8B44E8"/>
</linearGradient>
<linearGradient id="paint4_linear_54_1616" x1="70.9795" y1="10.8412" x2="38.1985" y2="96.0199" gradientUnits="userSpaceOnUse">
<stop stop-color="#490381"/>
<stop offset="1" stop-color="#967AE9"/>
</linearGradient>
</defs>
</svg>
