<svg width="108" height="108" viewBox="0 0 108 108" fill="none" xmlns="http://www.w3.org/2000/svg">
<circle cx="54" cy="54" r="54" fill="url(#paint0_linear_54_1635)"/>
<circle cx="54" cy="54" r="54" fill="url(#paint1_linear_54_1635)"/>
<circle cx="54.1973" cy="53.0203" r="44.5" transform="rotate(11.422 54.1973 53.0203)" fill="url(#paint2_linear_54_1635)"/>
<circle cx="54.1973" cy="53.0203" r="44.5" transform="rotate(11.422 54.1973 53.0203)" fill="url(#paint3_linear_54_1635)"/>
<circle cx="54.1973" cy="53.0203" r="44.5" transform="rotate(11.422 54.1973 53.0203)" stroke="url(#paint4_linear_54_1635)"/>
<path d="M50.224 61.176C50.8213 61.944 51.376 62.4987 51.888 62.84C52.4 63.1387 53.168 63.288 54.192 63.288C55.2587 63.288 56.1547 62.9467 56.88 62.264C57.648 61.5387 58.032 60.6 58.032 59.448C58.032 58.296 57.6693 57.336 56.944 56.568C56.2613 55.8 55.3653 55.416 54.256 55.416C53.1467 55.416 52.208 55.672 51.44 56.184C50.7147 56.696 50.2453 56.952 50.032 56.952H37.296C36.912 56.952 36.5707 56.824 36.272 56.568C36.016 56.2693 35.888 55.928 35.888 55.544V55.224L38.448 32.376C38.6187 30.9253 39.4507 30.2 40.944 30.2H69.552C70.0213 30.2 70.4267 30.3707 70.768 30.712C71.1093 31.0533 71.28 31.4587 71.28 31.928V40.952C71.28 41.4213 71.1093 41.8267 70.768 42.168C70.4267 42.5093 70.0213 42.68 69.552 42.68H50.864L50.352 47.224C52.4853 45.7733 55.4507 45.048 59.248 45.048C63.088 45.048 66.5867 46.4773 69.744 49.336C72.944 52.152 74.544 55.736 74.544 60.088C74.544 64.3973 72.752 68.088 69.168 71.16C65.584 74.232 60.5493 75.768 54.064 75.768C47.5787 75.768 42.5227 74.4027 38.896 71.672C35.312 68.8987 33.52 65.4853 33.52 61.432C33.52 61.048 33.648 60.728 33.904 60.472C34.2027 60.1733 34.544 60.024 34.928 60.024H47.856C48.8373 60.024 49.6267 60.408 50.224 61.176Z" fill="white"/>
<path d="M50.224 61.176L47.8559 63.0178L50.224 61.176ZM51.888 62.84L50.2239 65.3362L50.2987 65.386L50.3764 65.4313L51.888 62.84ZM56.88 62.264L58.9361 64.4486L58.9399 64.445L56.88 62.264ZM56.944 56.568L54.7018 58.5611L54.7319 58.5949L54.763 58.6279L56.944 56.568ZM51.44 56.184L49.7759 53.6879L49.7426 53.71L49.71 53.7331L51.44 56.184ZM36.272 56.568L33.9942 58.5204L34.1444 58.6956L34.3196 58.8458L36.272 56.568ZM35.888 55.224L32.9067 54.89L32.888 55.0565V55.224H35.888ZM38.448 32.376L35.4685 32.0255L35.4676 32.0337L35.4667 32.042L38.448 32.376ZM50.864 42.68V39.68H48.183L47.8829 42.3441L50.864 42.68ZM50.352 47.224L47.3709 46.8881L46.6398 53.3762L52.0389 49.7048L50.352 47.224ZM69.744 49.336L67.7305 51.5599L67.7462 51.5741L67.7621 51.5881L69.744 49.336ZM69.168 71.16L71.1204 73.4378L69.168 71.16ZM38.896 71.672L37.0601 74.0446L37.0757 74.0567L37.0915 74.0686L38.896 71.672ZM33.904 60.472L36.0253 62.5933H36.0253L33.904 60.472ZM47.8559 63.0178C48.5502 63.9104 49.3344 64.7431 50.2239 65.3362L53.5521 60.3438C53.4176 60.2542 53.0925 59.9776 52.5921 59.3342L47.8559 63.0178ZM50.3764 65.4313C51.5703 66.1278 52.9746 66.288 54.192 66.288V60.288C53.817 60.288 53.5685 60.2599 53.4206 60.2312C53.2677 60.2014 53.2884 60.1838 53.3996 60.2487L50.3764 65.4313ZM54.192 66.288C55.9635 66.288 57.6125 65.6944 58.9361 64.4486L54.8239 60.0794C54.6969 60.199 54.5539 60.288 54.192 60.288V66.288ZM58.9399 64.445C60.3658 63.0984 61.032 61.3423 61.032 59.448H55.032C55.032 59.8577 54.9303 59.979 54.8201 60.083L58.9399 64.445ZM61.032 59.448C61.032 57.6057 60.4261 55.8857 59.125 54.5081L54.763 58.6279C54.9126 58.7863 55.032 58.9863 55.032 59.448H61.032ZM59.1862 54.5749C57.8852 53.1112 56.1455 52.416 54.256 52.416V58.416C54.4602 58.416 54.5518 58.4501 54.5782 58.4614C54.599 58.4703 54.6372 58.4885 54.7018 58.5611L59.1862 54.5749ZM54.256 52.416C52.6757 52.416 51.1288 52.7859 49.7759 53.6879L53.1041 58.6801C53.2872 58.5581 53.6177 58.416 54.256 58.416V52.416ZM49.71 53.7331C49.5557 53.842 49.427 53.9288 49.3217 53.9965C49.2147 54.0653 49.145 54.1058 49.1074 54.1263C49.0623 54.151 49.095 54.1294 49.1866 54.095C49.2352 54.0768 49.3256 54.0454 49.4494 54.0168C49.5675 53.9896 49.7707 53.952 50.032 53.952V59.952C50.6126 59.952 51.0752 59.7948 51.2934 59.713C51.5557 59.6146 51.7911 59.497 51.9806 59.3937C52.3606 59.1864 52.7659 58.9202 53.17 58.6349L49.71 53.7331ZM50.032 53.952H37.296V59.952H50.032V53.952ZM37.296 53.952C37.4443 53.952 37.6215 53.9781 37.8054 54.047C37.9882 54.1156 38.1285 54.2081 38.2244 54.2902L34.3196 58.8458C35.1475 59.5554 36.177 59.952 37.296 59.952V53.952ZM38.5498 54.6156C38.6319 54.7115 38.7244 54.8518 38.793 55.0346C38.8619 55.2185 38.888 55.3957 38.888 55.544H32.888C32.888 56.663 33.2846 57.6925 33.9942 58.5204L38.5498 54.6156ZM38.888 55.544V55.224H32.888V55.544H38.888ZM38.8693 55.558L41.4293 32.71L35.4667 32.042L32.9067 54.89L38.8693 55.558ZM41.4275 32.7265C41.4411 32.6109 41.4565 32.6103 41.4247 32.6795C41.388 32.759 41.3091 32.8852 41.1714 33.0053C40.8739 33.2646 40.6645 33.2 40.944 33.2V27.2C39.7302 27.2 38.3581 27.498 37.2286 28.4827C36.0897 29.4756 35.6122 30.8044 35.4685 32.0255L41.4275 32.7265ZM40.944 33.2H69.552V27.2H40.944V33.2ZM69.552 33.2C69.414 33.2 69.2339 33.173 69.0438 33.0929C68.8554 33.0136 68.7236 32.9102 68.6467 32.8333L72.8893 28.5907C72.0033 27.7047 70.842 27.2 69.552 27.2V33.2ZM68.6467 32.8333C68.5698 32.7564 68.4664 32.6246 68.3871 32.4362C68.307 32.2461 68.28 32.066 68.28 31.928H74.28C74.28 30.638 73.7753 29.4767 72.8893 28.5907L68.6467 32.8333ZM68.28 31.928V40.952H74.28V31.928H68.28ZM68.28 40.952C68.28 40.814 68.307 40.6339 68.3871 40.4438C68.4664 40.2554 68.5698 40.1236 68.6467 40.0467L72.8893 44.2893C73.7753 43.4033 74.28 42.242 74.28 40.952H68.28ZM68.6467 40.0467C68.7236 39.9698 68.8554 39.8664 69.0438 39.7871C69.2339 39.707 69.414 39.68 69.552 39.68V45.68C70.842 45.68 72.0033 45.1753 72.8893 44.2893L68.6467 40.0467ZM69.552 39.68H50.864V45.68H69.552V39.68ZM47.8829 42.3441L47.3709 46.8881L53.3331 47.5599L53.8451 43.0159L47.8829 42.3441ZM52.0389 49.7048C53.4911 48.7173 55.7834 48.048 59.248 48.048V42.048C55.1179 42.048 51.4796 42.8294 48.6651 44.7432L52.0389 49.7048ZM59.248 48.048C62.2605 48.048 65.0598 49.1418 67.7305 51.5599L71.7575 47.1121C68.1135 43.8128 63.9155 42.048 59.248 42.048V48.048ZM67.7621 51.5881C70.2995 53.8211 71.544 56.5774 71.544 60.088H77.544C77.544 54.8946 75.5885 50.4829 71.7259 47.0839L67.7621 51.5881ZM71.544 60.088C71.544 63.4315 70.2063 66.3188 67.2156 68.8822L71.1204 73.4378C75.2977 69.8572 77.544 65.3632 77.544 60.088H71.544ZM67.2156 68.8822C64.3489 71.3394 60.1008 72.768 54.064 72.768V78.768C60.9979 78.768 66.8191 77.1246 71.1204 73.4378L67.2156 68.8822ZM54.064 72.768C47.9594 72.768 43.6261 71.4782 40.7005 69.2754L37.0915 74.0686C41.4192 77.3271 47.198 78.768 54.064 78.768V72.768ZM40.732 69.2994C37.7832 67.0176 36.52 64.4386 36.52 61.432H30.52C30.52 66.5321 32.8408 70.7797 37.0601 74.0446L40.732 69.2994ZM36.52 61.432C36.52 61.5782 36.4945 61.7855 36.4014 62.0182C36.307 62.2543 36.1698 62.4488 36.0253 62.5933L31.7827 58.3507C30.9273 59.2061 30.52 60.3059 30.52 61.432H36.52ZM36.0253 62.5933C35.9452 62.6734 35.8012 62.7905 35.5865 62.8845C35.3662 62.9808 35.1369 63.024 34.928 63.024V57.024C33.665 57.024 32.5822 57.5512 31.7827 58.3507L36.0253 62.5933ZM34.928 63.024H47.856V57.024H34.928V63.024ZM47.856 63.024C47.8808 63.024 47.8979 63.0252 47.908 63.0263C47.9181 63.0273 47.9219 63.0282 47.9202 63.0278C47.9184 63.0275 47.9125 63.0261 47.9033 63.0229C47.894 63.0197 47.8832 63.0153 47.8716 63.0097C47.86 63.0041 47.8495 62.9981 47.8405 62.9922C47.8315 62.9864 47.8257 62.9818 47.8229 62.9796C47.8203 62.9774 47.8218 62.9783 47.8272 62.984C47.8326 62.9896 47.8424 63.0004 47.8559 63.0178L52.5921 59.3342C51.4206 57.8281 49.7537 57.024 47.856 57.024V63.024Z" fill="#967AE9"/>
<defs>
<linearGradient id="paint0_linear_54_1635" x1="0" y1="0" x2="120.5" y2="93.5" gradientUnits="userSpaceOnUse">
<stop stop-color="#2E0251"/>
<stop offset="0.505208" stop-color="#6C2BBF"/>
<stop offset="0.625" stop-color="#58239C"/>
<stop offset="1"/>
</linearGradient>
<linearGradient id="paint1_linear_54_1635" x1="0" y1="0" x2="120.5" y2="93.5" gradientUnits="userSpaceOnUse">
<stop offset="0.0625" stop-color="#2E0251"/>
<stop offset="0.307292" stop-color="#661DC4"/>
<stop offset="0.557292" stop-color="#923FD5"/>
<stop offset="0.78125" stop-color="#6C2BBF"/>
<stop offset="1" stop-color="#2E0251"/>
</linearGradient>
<linearGradient id="paint2_linear_54_1635" x1="9.19729" y1="8.02029" x2="109.614" y2="85.937" gradientUnits="userSpaceOnUse">
<stop stop-color="#2E0251"/>
<stop offset="0.505208" stop-color="#6C2BBF"/>
<stop offset="0.625" stop-color="#58239C"/>
<stop offset="1"/>
</linearGradient>
<linearGradient id="paint3_linear_54_1635" x1="9.19729" y1="8.02029" x2="109.614" y2="85.937" gradientUnits="userSpaceOnUse">
<stop offset="0.195234" stop-color="#301844"/>
<stop offset="0.643804" stop-color="#8B44E8"/>
</linearGradient>
<linearGradient id="paint4_linear_54_1635" x1="70.9795" y1="10.8412" x2="38.1985" y2="96.0199" gradientUnits="userSpaceOnUse">
<stop stop-color="#490381"/>
<stop offset="1" stop-color="#967AE9"/>
</linearGradient>
</defs>
</svg>
