<svg width="108" height="108" viewBox="0 0 108 108" fill="none" xmlns="http://www.w3.org/2000/svg">
<circle cx="54" cy="54" r="54" fill="url(#paint0_linear_54_1621)"/>
<circle cx="54" cy="54" r="54" fill="url(#paint1_linear_54_1621)"/>
<circle cx="54.1973" cy="53.0203" r="44.5" transform="rotate(11.422 54.1973 53.0203)" fill="url(#paint2_linear_54_1621)"/>
<circle cx="54.1973" cy="53.0203" r="44.5" transform="rotate(11.422 54.1973 53.0203)" fill="url(#paint3_linear_54_1621)"/>
<circle cx="54.1973" cy="53.0203" r="44.5" transform="rotate(11.422 54.1973 53.0203)" stroke="url(#paint4_linear_54_1621)"/>
<path d="M68.128 31.928V73.272C68.128 73.7413 67.9573 74.1467 67.616 74.488C67.2747 74.8293 66.8693 75 66.4 75H53.856C53.3867 75 52.9813 74.8293 52.64 74.488C52.2987 74.1467 52.128 73.7413 52.128 73.272V47.416L44.96 52.92C44.6187 53.176 44.2347 53.304 43.808 53.304C43.424 53.304 42.9973 53.0053 42.528 52.408L36.896 45.112C36.7253 44.8133 36.64 44.536 36.64 44.28C36.64 43.512 36.9173 42.9573 37.472 42.616L52.896 30.648C53.3227 30.3493 53.792 30.2 54.304 30.2H66.4C66.8693 30.2 67.2747 30.3707 67.616 30.712C67.9573 31.0533 68.128 31.4587 68.128 31.928Z" fill="white"/>
<path d="M67.616 74.488L65.4947 72.3667L65.4947 72.3667L67.616 74.488ZM52.64 74.488L54.7613 72.3667L54.7613 72.3667L52.64 74.488ZM52.128 47.416H55.128V41.33L50.3009 45.0365L52.128 47.416ZM44.96 52.92L46.76 55.32L46.7736 55.3098L46.7871 55.2994L44.96 52.92ZM42.528 52.408L40.1532 54.2412L40.1611 54.2513L40.169 54.2615L42.528 52.408ZM36.896 45.112L34.2913 46.6004L34.3943 46.7807L34.5212 46.9452L36.896 45.112ZM37.472 42.616L39.0443 45.171L39.1827 45.0858L39.3111 44.9862L37.472 42.616ZM52.896 30.648L51.1756 28.1903L51.1152 28.2326L51.0569 28.2778L52.896 30.648ZM67.616 30.712L65.4947 32.8333L65.4947 32.8333L67.616 30.712ZM65.128 31.928V73.272H71.128V31.928H65.128ZM65.128 73.272C65.128 73.134 65.155 72.9539 65.2351 72.7638C65.3144 72.5754 65.4178 72.4436 65.4947 72.3667L69.7373 76.6093C70.6233 75.7233 71.128 74.562 71.128 73.272H65.128ZM65.4947 72.3667C65.5716 72.2898 65.7034 72.1864 65.8918 72.1071C66.0819 72.027 66.262 72 66.4 72V78C67.69 78 68.8513 77.4953 69.7373 76.6093L65.4947 72.3667ZM66.4 72H53.856V78H66.4V72ZM53.856 72C53.994 72 54.1741 72.027 54.3642 72.1071C54.5526 72.1864 54.6844 72.2898 54.7613 72.3667L50.5187 76.6093C51.4047 77.4953 52.566 78 53.856 78V72ZM54.7613 72.3667C54.8382 72.4436 54.9416 72.5754 55.0209 72.7638C55.101 72.9539 55.128 73.134 55.128 73.272H49.128C49.128 74.562 49.6327 75.7233 50.5187 76.6093L54.7613 72.3667ZM55.128 73.272V47.416H49.128V73.272H55.128ZM50.3009 45.0365L43.1329 50.5405L46.7871 55.2994L53.9551 49.7954L50.3009 45.0365ZM43.16 50.52C43.2333 50.4651 43.3372 50.4053 43.4673 50.3619C43.5974 50.3186 43.7164 50.304 43.808 50.304V56.304C44.8838 56.304 45.8994 55.9655 46.76 55.32L43.16 50.52ZM43.808 50.304C44.4161 50.304 44.8054 50.5418 44.9204 50.6223C45.0314 50.7 45.015 50.7175 44.887 50.5545L40.169 54.2615C40.7033 54.9414 41.9167 56.304 43.808 56.304V50.304ZM44.9028 50.5748L39.2708 43.2788L34.5212 46.9452L40.1532 54.2412L44.9028 50.5748ZM39.5007 43.6236C39.5033 43.6281 39.64 43.8647 39.64 44.28H33.64C33.64 45.2073 33.9473 45.9985 34.2913 46.6004L39.5007 43.6236ZM39.64 44.28C39.64 44.2529 39.6446 44.4029 39.5313 44.6296C39.4071 44.878 39.2181 45.064 39.0443 45.171L35.8997 40.061C34.286 41.0541 33.64 42.6892 33.64 44.28H39.64ZM39.3111 44.9862L54.7351 33.0182L51.0569 28.2778L35.6329 40.2458L39.3111 44.9862ZM54.6164 33.1057C54.5956 33.1202 54.5481 33.1483 54.4776 33.1708C54.4066 33.1934 54.3444 33.2 54.304 33.2V27.2C53.1652 27.2 52.0972 27.5452 51.1756 28.1903L54.6164 33.1057ZM54.304 33.2H66.4V27.2H54.304V33.2ZM66.4 33.2C66.262 33.2 66.0819 33.173 65.8918 33.0929C65.7034 33.0136 65.5716 32.9102 65.4947 32.8333L69.7373 28.5907C68.8513 27.7047 67.69 27.2 66.4 27.2V33.2ZM65.4947 32.8333C65.4178 32.7564 65.3144 32.6246 65.2351 32.4362C65.155 32.2461 65.128 32.066 65.128 31.928H71.128C71.128 30.638 70.6233 29.4767 69.7373 28.5907L65.4947 32.8333Z" fill="#967AE9"/>
<defs>
<linearGradient id="paint0_linear_54_1621" x1="0" y1="0" x2="120.5" y2="93.5" gradientUnits="userSpaceOnUse">
<stop stop-color="#2E0251"/>
<stop offset="0.505208" stop-color="#6C2BBF"/>
<stop offset="0.625" stop-color="#58239C"/>
<stop offset="1"/>
</linearGradient>
<linearGradient id="paint1_linear_54_1621" x1="0" y1="0" x2="120.5" y2="93.5" gradientUnits="userSpaceOnUse">
<stop offset="0.0625" stop-color="#2E0251"/>
<stop offset="0.307292" stop-color="#661DC4"/>
<stop offset="0.557292" stop-color="#923FD5"/>
<stop offset="0.78125" stop-color="#6C2BBF"/>
<stop offset="1" stop-color="#2E0251"/>
</linearGradient>
<linearGradient id="paint2_linear_54_1621" x1="9.19729" y1="8.02029" x2="109.614" y2="85.937" gradientUnits="userSpaceOnUse">
<stop stop-color="#2E0251"/>
<stop offset="0.505208" stop-color="#6C2BBF"/>
<stop offset="0.625" stop-color="#58239C"/>
<stop offset="1"/>
</linearGradient>
<linearGradient id="paint3_linear_54_1621" x1="9.19729" y1="8.02029" x2="109.614" y2="85.937" gradientUnits="userSpaceOnUse">
<stop offset="0.195234" stop-color="#301844"/>
<stop offset="0.643804" stop-color="#8B44E8"/>
</linearGradient>
<linearGradient id="paint4_linear_54_1621" x1="70.9795" y1="10.8412" x2="38.1985" y2="96.0199" gradientUnits="userSpaceOnUse">
<stop stop-color="#490381"/>
<stop offset="1" stop-color="#967AE9"/>
</linearGradient>
</defs>
</svg>
