<?xml version="1.0" standalone="no"?>
<!DOCTYPE svg PUBLIC "-//W3C//DTD SVG 20010904//EN"
 "http://www.w3.org/TR/2001/REC-SVG-20010904/DTD/svg10.dtd">
<svg version="1.0" xmlns="http://www.w3.org/2000/svg"
 width="96.000000pt" height="97.000000pt" viewBox="0 0 96.000000 97.000000"
 preserveAspectRatio="xMidYMid meet">

<g transform="translate(0.000000,97.000000) scale(0.100000,-0.100000)"
fill="#000000" stroke="none">
<path d="M400 950 c-128 -18 -247 -93 -319 -201 -55 -82 -71 -142 -71 -260 0
-146 36 -233 137 -330 168 -162 399 -190 578 -68 67 45 144 135 178 207 29 62
31 75 31 177 1 121 -8 156 -60 245 -30 52 -119 150 -136 150 -4 0 -23 11 -43
24 -68 46 -195 70 -295 56z m214 -256 c12 -31 7 -389 -6 -402 -7 -7 -41 -12
-85 -12 -89 0 -93 5 -93 125 0 83 -1 85 -20 75 -12 -6 -28 -9 -38 -5 -24 7
-74 81 -70 102 2 10 37 43 78 75 l75 58 76 0 c61 0 78 -3 83 -16z"/>
</g>
</svg>
