<svg width="108" height="108" viewBox="0 0 108 108" fill="none" xmlns="http://www.w3.org/2000/svg">
<circle cx="54" cy="54" r="54" fill="url(#paint0_linear_54_1626)"/>
<circle cx="54" cy="54" r="54" fill="url(#paint1_linear_54_1626)"/>
<circle cx="54.1973" cy="53.0203" r="44.5" transform="rotate(11.422 54.1973 53.0203)" fill="url(#paint2_linear_54_1626)"/>
<circle cx="54.1973" cy="53.0203" r="44.5" transform="rotate(11.422 54.1973 53.0203)" fill="url(#paint3_linear_54_1626)"/>
<circle cx="54.1973" cy="53.0203" r="44.5" transform="rotate(11.422 54.1973 53.0203)" stroke="url(#paint4_linear_54_1626)"/>
<path d="M74.928 60.984C74.928 65.3787 72.9653 68.92 69.04 71.608C65.1147 74.296 60.1013 75.64 54 75.64C50.3733 75.64 47.1307 75.192 44.272 74.296C41.456 73.4 39.28 72.248 37.744 70.84C34.7147 68.0667 33.2 65.2293 33.2 62.328C33.2 61.944 33.328 61.624 33.584 61.368C33.8827 61.0693 34.224 60.92 34.608 60.92H47.472C48.24 60.92 49.008 61.304 49.776 62.072C50.544 62.84 51.9093 63.224 53.872 63.224C56.816 63.224 58.288 62.0933 58.288 59.832C58.288 57.9547 56.7947 57.016 53.808 57.016H46.064C45.5947 57.016 45.1893 56.8453 44.848 56.504C44.5067 56.1627 44.336 55.7573 44.336 55.288V50.104C44.336 48.9093 44.7627 48.056 45.616 47.544L54.512 42.68H37.68C37.2107 42.68 36.8053 42.5093 36.464 42.168C36.1227 41.8267 35.952 41.4213 35.952 40.952V31.928C35.952 31.4587 36.1227 31.0533 36.464 30.712C36.8053 30.3707 37.2107 30.2 37.68 30.2H70.448C70.9173 30.2 71.3227 30.3707 71.664 30.712C72.0053 31.0533 72.176 31.4587 72.176 31.928V40.056C72.176 41.1653 71.7493 42.0187 70.896 42.616L63.408 47.736C71.088 49.656 74.928 54.072 74.928 60.984Z" fill="white"/>
<path d="M69.04 71.608L67.345 69.1327L69.04 71.608ZM44.272 74.296L43.3624 77.1548L43.3747 77.1587L44.272 74.296ZM37.744 70.84L39.7712 68.6285L39.7698 68.6272L37.744 70.84ZM33.584 61.368L35.7053 63.4893H35.7053L33.584 61.368ZM49.776 62.072L47.6547 64.1933H47.6547L49.776 62.072ZM44.848 56.504L42.7267 58.6253L42.7267 58.6253L44.848 56.504ZM45.616 47.544L44.1768 44.9118L44.1241 44.9406L44.0725 44.9715L45.616 47.544ZM54.512 42.68L55.9512 45.3122L54.512 39.68V42.68ZM70.896 42.616L72.5893 45.0924L72.6029 45.0831L72.6164 45.0737L70.896 42.616ZM63.408 47.736L61.7147 45.2596L56.2043 49.0274L62.6804 50.6464L63.408 47.736ZM71.928 60.984C71.928 64.2962 70.5331 66.9496 67.345 69.1327L70.735 74.0833C75.3976 70.8904 77.928 66.4611 77.928 60.984H71.928ZM67.345 69.1327C64.0429 71.3939 59.6666 72.64 54 72.64V78.64C60.5361 78.64 66.1864 77.1981 70.735 74.0833L67.345 69.1327ZM54 72.64C50.6159 72.64 47.6839 72.2215 45.1693 71.4333L43.3747 77.1587C46.5774 78.1625 50.1308 78.64 54 78.64V72.64ZM45.1816 71.4372C42.6192 70.6219 40.881 69.6459 39.7712 68.6285L35.7168 73.0515C37.679 74.8501 40.2928 76.1781 43.3624 77.1548L45.1816 71.4372ZM39.7698 68.6272C37.0968 66.1801 36.2 64.086 36.2 62.328H30.2C30.2 66.3727 32.3326 69.9532 35.7182 73.0528L39.7698 68.6272ZM36.2 62.328C36.2 62.4742 36.1745 62.6815 36.0814 62.9142C35.987 63.1503 35.8498 63.3448 35.7053 63.4893L31.4627 59.2467C30.6073 60.1021 30.2 61.2019 30.2 62.328H36.2ZM35.7053 63.4893C35.6252 63.5694 35.4812 63.6865 35.2665 63.7805C35.0462 63.8768 34.8169 63.92 34.608 63.92V57.92C33.345 57.92 32.2622 58.4472 31.4627 59.2467L35.7053 63.4893ZM34.608 63.92H47.472V57.92H34.608V63.92ZM47.472 63.92C47.4113 63.92 47.359 63.9121 47.3204 63.9024C47.283 63.8931 47.2698 63.885 47.2824 63.8913C47.3132 63.9067 47.4411 63.9798 47.6547 64.1933L51.8973 59.9507C50.8023 58.8557 49.3163 57.92 47.472 57.92V63.92ZM47.6547 64.1933C49.2955 65.8341 51.699 66.224 53.872 66.224V60.224C53.0684 60.224 52.5272 60.1434 52.1882 60.048C51.8534 59.9539 51.8233 59.8766 51.8973 59.9507L47.6547 64.1933ZM53.872 66.224C55.6439 66.224 57.5232 65.8983 59.0115 64.7552C60.6496 63.4969 61.288 61.6682 61.288 59.832H55.288C55.288 60.0758 55.2482 60.1488 55.26 60.1217C55.2795 60.0768 55.3225 60.023 55.3565 59.9968C55.3747 59.9829 55.306 60.0427 55.0599 60.1057C54.8097 60.1698 54.4258 60.224 53.872 60.224V66.224ZM61.288 59.832C61.288 57.9416 60.4502 56.2397 58.7645 55.1801C57.3124 54.2673 55.5187 54.016 53.808 54.016V60.016C54.4067 60.016 54.8455 60.0639 55.1528 60.1282C55.463 60.1932 55.5738 60.2614 55.5715 60.2599C55.549 60.2457 55.4425 60.1656 55.3576 60.0055C55.2771 59.8536 55.288 59.7655 55.288 59.832H61.288ZM53.808 54.016H46.064V60.016H53.808V54.016ZM46.064 54.016C46.202 54.016 46.3821 54.043 46.5722 54.1231C46.7606 54.2024 46.8924 54.3058 46.9693 54.3827L42.7267 58.6253C43.6127 59.5113 44.774 60.016 46.064 60.016V54.016ZM46.9693 54.3827C47.0462 54.4596 47.1496 54.5914 47.2289 54.7798C47.309 54.9699 47.336 55.15 47.336 55.288H41.336C41.336 56.578 41.8407 57.7393 42.7267 58.6253L46.9693 54.3827ZM47.336 55.288V50.104H41.336V55.288H47.336ZM47.336 50.104C47.336 49.8577 47.3801 49.828 47.3393 49.9096C47.3188 49.9506 47.2868 49.9988 47.2446 50.0438C47.203 50.0882 47.1692 50.1107 47.1595 50.1165L44.0725 44.9715C42.1217 46.142 41.336 48.1031 41.336 50.104H47.336ZM47.0552 50.1762L55.9512 45.3122L53.0728 40.0478L44.1768 44.9118L47.0552 50.1762ZM54.512 39.68H37.68V45.68H54.512V39.68ZM37.68 39.68C37.818 39.68 37.9981 39.707 38.1882 39.7871C38.3766 39.8664 38.5084 39.9698 38.5853 40.0467L34.3427 44.2893C35.2287 45.1753 36.39 45.68 37.68 45.68V39.68ZM38.5853 40.0467C38.6622 40.1236 38.7656 40.2554 38.8449 40.4438C38.925 40.6339 38.952 40.814 38.952 40.952H32.952C32.952 42.242 33.4567 43.4033 34.3427 44.2893L38.5853 40.0467ZM38.952 40.952V31.928H32.952V40.952H38.952ZM38.952 31.928C38.952 32.066 38.925 32.2461 38.8449 32.4362C38.7656 32.6246 38.6622 32.7564 38.5853 32.8333L34.3427 28.5907C33.4567 29.4767 32.952 30.638 32.952 31.928H38.952ZM38.5853 32.8333C38.5084 32.9102 38.3766 33.0136 38.1882 33.0929C37.9981 33.173 37.818 33.2 37.68 33.2V27.2C36.39 27.2 35.2287 27.7047 34.3427 28.5907L38.5853 32.8333ZM37.68 33.2H70.448V27.2H37.68V33.2ZM70.448 33.2C70.31 33.2 70.1299 33.173 69.9398 33.0929C69.7514 33.0136 69.6196 32.9102 69.5427 32.8333L73.7853 28.5907C72.8993 27.7047 71.738 27.2 70.448 27.2V33.2ZM69.5427 32.8333C69.4658 32.7564 69.3624 32.6246 69.2831 32.4362C69.203 32.2461 69.176 32.066 69.176 31.928H75.176C75.176 30.638 74.6713 29.4767 73.7853 28.5907L69.5427 32.8333ZM69.176 31.928V40.056H75.176V31.928H69.176ZM69.176 40.056C69.176 40.1411 69.1678 40.1872 69.1645 40.2027C69.1614 40.2167 69.1619 40.208 69.1727 40.1864C69.1838 40.1642 69.1971 40.1458 69.2065 40.1351C69.2151 40.1254 69.2093 40.1347 69.1756 40.1583L72.6164 45.0737C74.3313 43.8733 75.176 42.0692 75.176 40.056H69.176ZM69.2027 40.1396L61.7147 45.2596L65.1013 50.2124L72.5893 45.0924L69.2027 40.1396ZM62.6804 50.6464C66.1301 51.5089 68.3877 52.8505 69.7842 54.4565C71.1461 56.0227 71.928 58.1134 71.928 60.984H77.928C77.928 56.9426 76.7899 53.3693 74.3118 50.5195C71.8683 47.7095 68.3659 45.8831 64.1356 44.8256L62.6804 50.6464Z" fill="#967AE9"/>
<defs>
<linearGradient id="paint0_linear_54_1626" x1="0" y1="0" x2="120.5" y2="93.5" gradientUnits="userSpaceOnUse">
<stop stop-color="#2E0251"/>
<stop offset="0.505208" stop-color="#6C2BBF"/>
<stop offset="0.625" stop-color="#58239C"/>
<stop offset="1"/>
</linearGradient>
<linearGradient id="paint1_linear_54_1626" x1="0" y1="0" x2="120.5" y2="93.5" gradientUnits="userSpaceOnUse">
<stop offset="0.0625" stop-color="#2E0251"/>
<stop offset="0.307292" stop-color="#661DC4"/>
<stop offset="0.557292" stop-color="#923FD5"/>
<stop offset="0.78125" stop-color="#6C2BBF"/>
<stop offset="1" stop-color="#2E0251"/>
</linearGradient>
<linearGradient id="paint2_linear_54_1626" x1="9.19729" y1="8.02029" x2="109.614" y2="85.937" gradientUnits="userSpaceOnUse">
<stop stop-color="#2E0251"/>
<stop offset="0.505208" stop-color="#6C2BBF"/>
<stop offset="0.625" stop-color="#58239C"/>
<stop offset="1"/>
</linearGradient>
<linearGradient id="paint3_linear_54_1626" x1="9.19729" y1="8.02029" x2="109.614" y2="85.937" gradientUnits="userSpaceOnUse">
<stop offset="0.195234" stop-color="#301844"/>
<stop offset="0.643804" stop-color="#8B44E8"/>
</linearGradient>
<linearGradient id="paint4_linear_54_1626" x1="70.9795" y1="10.8412" x2="38.1985" y2="96.0199" gradientUnits="userSpaceOnUse">
<stop stop-color="#490381"/>
<stop offset="1" stop-color="#967AE9"/>
</linearGradient>
</defs>
</svg>
