<svg width="46" height="46" viewBox="0 0 46 46" fill="none" xmlns="http://www.w3.org/2000/svg">
<circle cx="23" cy="23" r="23" fill="#F40000"/>
<path d="M21.72 22.7L21.68 24.32L13.42 12.76H17.14L24.04 22.3L22 22.24L28.66 12.76H32.32L24.32 23.8L24.54 22.82L32.48 34H28.74L21.88 24.6L24.12 24.08L16.8 34H13.14L21.72 22.7Z" fill="white"/>
<path d="M21.72 22.7L22.7197 22.7247L22.7961 19.6291L20.9236 22.0953L21.72 22.7ZM21.68 24.32L20.8664 24.9014L22.6058 27.3358L22.6797 24.3447L21.68 24.32ZM13.42 12.76V11.76H11.4764L12.6064 13.3414L13.42 12.76ZM17.14 12.76L17.9503 12.174L17.6509 11.76H17.14V12.76ZM24.04 22.3L24.0106 23.2996L26.0403 23.3593L24.8503 21.714L24.04 22.3ZM22 22.24L21.1817 21.6651L20.114 23.185L21.9706 23.2396L22 22.24ZM28.66 12.76V11.76H28.1404L27.8417 12.1851L28.66 12.76ZM32.32 12.76L33.1298 13.3468L34.2796 11.76H32.32V12.76ZM24.32 23.8L23.3443 23.581L25.1298 24.3868L24.32 23.8ZM24.54 22.82L25.3553 22.241L24.0559 20.4113L23.5643 22.601L24.54 22.82ZM32.48 34V35H34.4167L33.2953 33.421L32.48 34ZM28.74 34L27.9322 34.5895L28.2318 35H28.74V34ZM21.88 24.6L21.6539 23.6259L20.1807 23.9679L21.0722 25.1895L21.88 24.6ZM24.12 24.08L24.9246 24.6738L26.5338 22.4931L23.8939 23.1059L24.12 24.08ZM16.8 34V35H17.3049L17.6046 34.5938L16.8 34ZM13.14 34L12.3436 33.3953L11.1251 35H13.14V34ZM20.7203 22.6753L20.6803 24.2953L22.6797 24.3447L22.7197 22.7247L20.7203 22.6753ZM22.4936 23.7386L14.2336 12.1786L12.6064 13.3414L20.8664 24.9014L22.4936 23.7386ZM13.42 13.76H17.14V11.76H13.42V13.76ZM16.3297 13.346L23.2297 22.886L24.8503 21.714L17.9503 12.174L16.3297 13.346ZM24.0694 21.3004L22.0294 21.2404L21.9706 23.2396L24.0106 23.2996L24.0694 21.3004ZM22.8183 22.8149L29.4783 13.3349L27.8417 12.1851L21.1817 21.6651L22.8183 22.8149ZM28.66 13.76H32.32V11.76H28.66V13.76ZM31.5103 12.1732L23.5103 23.2132L25.1298 24.3868L33.1298 13.3468L31.5103 12.1732ZM25.2957 24.019L25.5157 23.039L23.5643 22.601L23.3443 23.581L25.2957 24.019ZM23.7247 23.399L31.6647 34.579L33.2953 33.421L25.3553 22.241L23.7247 23.399ZM32.48 33H28.74V35H32.48V33ZM29.5478 33.4105L22.6878 24.0105L21.0722 25.1895L27.9322 34.5895L29.5478 33.4105ZM22.1061 25.5741L24.3461 25.0541L23.8939 23.1059L21.6539 23.6259L22.1061 25.5741ZM23.3154 23.4862L15.9954 33.4062L17.6046 34.5938L24.9246 24.6738L23.3154 23.4862ZM16.8 33H13.14V35H16.8V33ZM13.9364 34.6047L22.5164 23.3047L20.9236 22.0953L12.3436 33.3953L13.9364 34.6047Z" fill="white"/>
</svg>
